<svg width="70" height="60" viewBox="0 0 70 60" fill="none" xmlns="http://www.w3.org/2000/svg">
<path fill-rule="evenodd" clip-rule="evenodd" d="M7.39478 2.44605C5.16476 7.15505 4.65726 16.4691 6.36473 21.3461C6.73503 22.4039 7.12843 23.6725 7.23903 24.1655C7.50696 25.3616 10.9875 33.4608 12.3835 36.1374C13.7536 38.7639 13.7282 38.7901 11.1004 37.4541C7.32058 35.5326 4.34751 31.5826 3.05041 26.7593C2.13113 23.3408 1.00396 23.2778 1.07728 26.6488C1.20521 32.5289 6.17521 38.814 13.5882 42.4708C16.5287 43.9212 15.6779 42.7686 22.2467 54.2024C25.0456 59.0747 25.1807 59.2308 26.5972 59.2308C28.3561 59.2308 28.6071 58.8444 29.5953 54.6155C30.5972 50.3279 31.7228 46.6075 32.9289 43.5965L33.7948 41.4347L32.8533 40.1431C32.3354 39.4327 31.798 38.8502 31.6592 38.8488C31.1948 38.844 29.0869 43.6096 27.7646 47.6535L26.4568 51.6532L24.9027 49.3844C23.4622 47.2811 18.952 38.948 17.8384 36.332C13.847 26.9553 15.4787 15.6139 21.3027 12.2518C23.3567 11.066 22.9794 9.60861 20.8173 10.3764C16.3945 11.9471 12.3867 18.6498 11.9586 25.1924C11.8617 26.6725 10.7457 24.0611 9.62358 19.7287C8.47226 15.2835 8.37268 6.67709 9.43528 3.4703C10.3889 0.593047 8.67893 -0.265289 7.39478 2.44605ZM60.6933 1.30983C60.574 1.59997 60.6634 2.85176 60.8918 4.09178C62.1043 10.6744 61.7708 16.6257 59.8923 21.9231C58.5846 25.6113 58.0736 26.3963 58.0652 24.7304C58.0377 19.3638 54.3147 12.8507 50.0733 10.7489C46.9222 9.18753 46.6273 10.2683 49.518 12.7852C57.5554 19.7834 55.8526 33.9088 45.1036 49.4043L43.5157 51.6933L42.9635 49.7889C41.483 44.6822 40.9738 43.3696 39.0497 39.7006L36.9766 35.7474L38.6433 33.7295C39.56 32.6197 41.4344 31.032 42.8087 30.2013C44.1829 29.3706 45.2427 28.5095 45.1636 28.2878C44.6666 26.893 40.9377 28.4095 37.4521 31.4239L35.0308 33.5178L32.8846 31.5955C30.5819 29.5331 26.8581 27.5444 25.6935 27.7555C24.4517 27.9804 24.6045 28.7779 26.0178 29.4484C32.5726 32.5583 37.2416 40.8258 40.5562 55.1923C41.3933 58.8197 41.6818 59.2308 43.3925 59.2308C44.7998 59.2308 44.9577 59.0615 47.1602 55.1923C48.5179 52.8073 52.0516 46.8561 53.3433 44.7797C53.8356 43.988 55.1098 43.1056 57.201 42.1082C63.3316 39.1839 68.1378 33.2911 69.1071 27.5108C69.7914 23.4293 68.2122 22.8184 67.0997 26.7343C65.7093 31.6287 62.3194 36.0255 58.5224 37.8595C56.6436 38.767 56.6205 38.591 58.1947 35.3476C65.3238 20.6586 66.7354 10.406 62.7265 2.43362C62.0403 1.06905 61.0232 0.506903 60.6933 1.30983Z" fill="white"/>
</svg>
